<svg xmlns="http://www.w3.org/2000/svg" width="64" height="64" viewBox="0 0 64 64"><rect x="0" y="0" width="64" height="64" rx="14" fill="#5B5FC7"/><path d="M18 22a3 3 0 1 1 6 0 3 3 0 0 1-6 0zm11 0h8m0 0l-3-3m3 3l-3 3M18 42a3 3 0 1 1 6 0 3 3 0 0 1-6 0zm11 0h8m0 0l-3-3m3 3l-3 3M38 32a3 3 0 1 1 6 0 3 3 0 0 1-6 0zM24 22h4a4 4 0 0 1 4 4v2m0 8v2a4 4 0 0 1-4 4h-4" stroke="white" stroke-width="2.5" fill="none" stroke-linecap="round" stroke-linejoin="round"/><circle cx="21" cy="22" r="3" fill="white"/><circle cx="21" cy="42" r="3" fill="white"/><circle cx="41" cy="32" r="3" fill="white"/></svg>
